# xmcd
#
# Track frame offsets: 
#        150
#        20459
#        37707
#        55351
#        70332
#        85983
#        104541
#        130397
#        145571
#        154156
#        172620
#
# Disc length: 2803 seconds
#
# Revision: 0
# Processed by: cddbd v1.5.2PL0 Copyright (c) Steve Scherf et al.
# Submitted via: ExactAudioCopyFreeDBPlugin 1.0
#
DISCID=880af10b
DTITLE=Zo! - ManMade
DYEAR=2013
DGENRE=R&B
TTITLE0=The Train
TTITLE1=Count To Five
TTITLE2=New In Town (Happy)
TTITLE3=Making Time
TTITLE4=Tell Me Something New
TTITLE5=ManMade
TTITLE6=We Are On The Move
TTITLE7=Show Me The Way
TTITLE8=For Tina
TTITLE9=Out In The World
TTITLE10=Body Rock
EXTD=
EXTT0=
EXTT1=
EXTT2=
EXTT3=
EXTT4=
EXTT5=
EXTT6=
EXTT7=
EXTT8=
EXTT9=
EXTT10=
PLAYORDER=
